<svg xmlns="http://www.w3.org/2000/svg" width="40" height="40" viewBox="0 0 40 40" fill="none">
  <path d="M0 6C0 2.68629 2.68629 0 6 0H34C37.3137 0 40 2.68629 40 6V34C40 37.3137 37.3137 40 34 40H6C2.68629 40 0 37.3137 0 34V6Z" fill="#E0FDEF"/>
  <svg xmlns="http://www.w3.org/2000/svg" width="30" height="30" viewBox="0 0 30 30" fill="none"  x="5" y="5">
  <path d="M7.85672 2.50342C7.61992 2.50342 7.39282 2.59749 7.22538 2.76493C7.05794 2.93237 6.96387 3.15947 6.96387 3.39628V15.8927C6.96387 16.8399 7.34014 17.7483 8.00991 18.4181C8.67969 19.0879 9.58809 19.4641 10.5353 19.4641H11.4282V23.9284C11.4282 24.3972 11.5205 24.8614 11.6999 25.2945C11.8793 25.7276 12.1422 26.1211 12.4737 26.4525C12.8051 26.784 13.1987 27.0469 13.6318 27.2263C14.0648 27.4057 14.529 27.4981 14.9978 27.4981C15.4666 27.4981 15.9307 27.4057 16.3638 27.2263C16.7969 27.0469 17.1904 26.784 17.5219 26.4525C17.8534 26.1211 18.1163 25.7276 18.2957 25.2945C18.4751 24.8614 18.5674 24.3972 18.5674 23.9284V19.4641H19.4639C20.4111 19.4641 21.3195 19.0879 21.9892 18.4181C22.659 17.7483 23.0353 16.8399 23.0353 15.8927V3.39628C23.0353 3.15947 22.9412 2.93237 22.7738 2.76493C22.6063 2.59749 22.3792 2.50342 22.1424 2.50342H7.85672ZM21.2496 13.2141H8.74958V4.28913H14.1067V6.97127C14.1067 7.20808 14.2008 7.43518 14.3682 7.60262C14.5357 7.77006 14.7628 7.86413 14.9996 7.86413C15.2364 7.86413 15.4635 7.77006 15.6309 7.60262C15.7984 7.43518 15.8924 7.20808 15.8924 6.97127V4.28913H17.6782V8.74628C17.6782 8.98308 17.7722 9.21018 17.9397 9.37762C18.1071 9.54506 18.3342 9.63913 18.571 9.63913C18.8078 9.63913 19.0349 9.54506 19.2024 9.37762C19.3698 9.21018 19.4639 8.98308 19.4639 8.74628V4.28913H21.2496V13.2141ZM8.74958 15.8927V14.9998H21.2496V15.8927C21.2496 16.3663 21.0614 16.8205 20.7266 17.1554C20.3917 17.4903 19.9375 17.6784 19.4639 17.6784H17.6746C17.4378 17.6784 17.2107 17.7725 17.0432 17.9399C16.8758 18.1074 16.7817 18.3345 16.7817 18.5713V23.9284C16.7817 24.4015 16.5938 24.8553 16.2592 25.1898C15.9247 25.5244 15.4709 25.7123 14.9978 25.7123C14.5247 25.7123 14.0709 25.5244 13.7364 25.1898C13.4018 24.8553 13.2139 24.4015 13.2139 23.9284V18.5713C13.2139 18.3345 13.1198 18.1074 12.9524 17.9399C12.7849 17.7725 12.5578 17.6784 12.321 17.6784H10.5353C10.0617 17.6784 9.60749 17.4903 9.27261 17.1554C8.93772 16.8205 8.74958 16.3663 8.74958 15.8927Z" fill="#2FD887"/>
</svg>
</svg>